<svg xmlns="http://www.w3.org/2000/svg" viewBox="0 0 128 128" aria-hidden="true"><defs><radialGradient id="b" cx="34%" cy="24%" r="82%"><stop stop-color="#4f738b"/><stop offset=".62" stop-color="#294b63"/><stop offset="1" stop-color="#172b3d"/></radialGradient><linearGradient id="g" x1="22" y1="16" x2="104" y2="112"><stop stop-color="#fff0ad"/><stop offset=".45" stop-color="#e6bd55"/><stop offset="1" stop-color="#9b611b"/></linearGradient></defs><circle cx="64" cy="64" r="61" fill="url(#b)" stroke="url(#g)" stroke-width="4"/><circle cx="64" cy="64" r="53" fill="none" stroke="#fff0ad" stroke-opacity=".2"/><path d="M27 34h74a8 8 0 0 1 8 8v34a8 8 0 0 1-8 8H65L48 99V84H27a8 8 0 0 1-8-8V42a8 8 0 0 1 8-8Z" fill="#fff6df" stroke="#e5b94e" stroke-width="3" stroke-linejoin="round"/><circle cx="47" cy="58" r="7" fill="#31536a"/><circle cx="64" cy="58" r="7" fill="#31536a"/><circle cx="81" cy="58" r="7" fill="#31536a"/><path d="M37 75c2-8 7-12 10-12s8 4 10 12M54 75c2-8 7-12 10-12s8 4 10 12M71 75c2-8 7-12 10-12s8 4 10 12" fill="none" stroke="#31536a" stroke-width="4" stroke-linecap="round"/></svg>
